<?xml version="1.0" encoding="UTF-8"?>
<svg id="Capa_2" data-name="Capa 2" xmlns="http://www.w3.org/2000/svg" viewBox="0 0 778.05 704.33">
  <defs>
    <style>
      .cls-1 {
        fill: #fff;
      }
    </style>
  </defs>
  <g id="Capa_1-2" data-name="Capa 1">
    <g>
      <path class="cls-1" d="m344.4,702.8s244.86-86.9,381.94-321.79c0,0-77.26,349.21-381.94,321.79Z"/>
      <path class="cls-1" d="m21.82,321.61s40.5,203.21,192.36,309.86l38.37-22.52s-94.27-45.81-230.73-287.34Z"/>
      <path class="cls-1" d="m650.94,325.55l-85.36.62-29.91-60.44h242.37c-242.99,357.01-493.46,426.8-493.46,426.8l-47.35-36.14s292.68-80.69,413.71-330.85Z"/>
      <path class="cls-1" d="m0,265.74h237.23l-21.34,52.03h-97.28s172.98,236.92,222.04,249.54l-46.26,22.43S175.24,530.54,0,265.74Z"/>
      <path class="cls-1" d="m390.5,152.34c-19.94,72.9-153.27,150.87-153.27,235.52s68.62,153.27,153.27,153.27,153.27-68.62,153.27-153.27-119-143.93-153.27-235.52Zm0,337.08c-56.09,0-101.56-45.47-101.56-101.56s85.36-96.5,101.56-158.19c18.38,57.63,101.56,102.1,101.56,158.19s-45.47,101.56-101.56,101.56Z"/>
      <path class="cls-1" d="m390.5,101.87c-18.29,43.93-131.87,143.93-131.87,143.93C269.23,196.26,390.5,0,390.5,0c0,0,121.28,196.26,131.87,245.8,0,0-113.58-100-131.87-143.93Z"/>
      <path class="cls-1" d="m441.36,373.95c-28.9,0-52.34-23.43-52.34-52.34,0,28.91-23.43,52.34-52.34,52.34,28.9,0,52.34,23.43,52.34,52.34,0-28.91,23.43-52.34,52.34-52.34Z"/>
    </g>
  </g>
</svg>